<?xml version="1.0" encoding="utf-8"?>
<!-- Generator: Adobe Illustrator 25.0.0, SVG Export Plug-In . SVG Version: 6.00 Build 0)  -->
<svg version="1.1" id="Layer_1" xmlns="http://www.w3.org/2000/svg" xmlns:xlink="http://www.w3.org/1999/xlink" x="0px" y="0px"
	 viewBox="0 0 1920 1080" style="enable-background:new 0 0 1920 1080;" xml:space="preserve">
<style type="text/css">
	.st0{fill:#10763C;}
	.st1{fill:#15234C;}
</style>
<g>
	<g>
		<path class="st0" d="M519.38,697.62h-6.03c-1.24,0-2.15-0.48-2.73-1.44l-13.04-17.95c-0.4-0.56-0.82-0.96-1.28-1.21
			c-0.46-0.24-1.16-0.37-2.12-0.37h-5.15v20.96h-6.77v-50.24h14.2c3.18,0,5.92,0.32,8.24,0.96c2.31,0.64,4.22,1.57,5.73,2.79
			c1.51,1.22,2.62,2.68,3.35,4.4c0.72,1.72,1.09,3.64,1.09,5.77c0,1.77-0.28,3.43-0.84,4.98c-0.56,1.54-1.37,2.93-2.44,4.15
			c-1.06,1.23-2.36,2.27-3.89,3.14c-1.53,0.87-3.27,1.52-5.21,1.96c0.86,0.49,1.61,1.2,2.24,2.14L519.38,697.62z M496.17,671.71
			c1.96,0,3.7-0.24,5.21-0.72c1.51-0.48,2.77-1.16,3.79-2.04c1.02-0.88,1.78-1.92,2.3-3.14c0.51-1.21,0.77-2.56,0.77-4.03
			c0-2.99-0.98-5.25-2.95-6.77c-1.96-1.52-4.91-2.28-8.83-2.28h-7.43v18.96H496.17z"/>
		<path class="st0" d="M551.25,692.64c-0.77,0.94-1.7,1.75-2.77,2.44c-1.08,0.69-2.23,1.26-3.45,1.7c-1.23,0.44-2.5,0.78-3.8,1
			c-1.31,0.22-2.61,0.33-3.89,0.33c-2.45,0-4.72-0.42-6.78-1.24c-2.07-0.83-3.86-2.04-5.36-3.65c-1.51-1.6-2.68-3.58-3.52-5.94
			c-0.84-2.36-1.26-5.07-1.26-8.14c0-2.48,0.38-4.79,1.14-6.94c0.76-2.15,1.85-4.01,3.28-5.59c1.43-1.58,3.17-2.82,5.22-3.72
			c2.06-0.9,4.37-1.35,6.94-1.35c2.13,0,4.1,0.36,5.91,1.07c1.81,0.71,3.38,1.74,4.7,3.08c1.32,1.34,2.35,3,3.1,4.98
			c0.75,1.98,1.12,4.22,1.12,6.75c0,0.98-0.1,1.64-0.32,1.96c-0.21,0.33-0.61,0.49-1.19,0.49h-23.73c0.07,2.24,0.38,4.2,0.93,5.85
			c0.55,1.66,1.31,3.05,2.3,4.16c0.98,1.11,2.15,1.94,3.51,2.49c1.35,0.55,2.87,0.83,4.56,0.83c1.57,0,2.92-0.18,4.05-0.54
			c1.13-0.36,2.11-0.75,2.93-1.17c0.82-0.42,1.5-0.81,2.05-1.18c0.55-0.36,1.02-0.54,1.42-0.54c0.51,0,0.91,0.2,1.19,0.6
			L551.25,692.64z M546.2,675.99c0-1.45-0.21-2.78-0.61-3.98c-0.41-1.2-1-2.25-1.79-3.12c-0.78-0.88-1.73-1.55-2.86-2.03
			c-1.12-0.48-2.39-0.72-3.82-0.72c-2.99,0-5.36,0.87-7.1,2.61c-1.74,1.74-2.82,4.15-3.24,7.24H546.2z"/>
		<path class="st0" d="M588.83,645.98v51.64h-3.72c-0.89,0-1.45-0.43-1.68-1.3l-0.56-4.31c-1.52,1.82-3.25,3.29-5.19,4.42
			c-1.94,1.12-4.18,1.68-6.73,1.68c-2.03,0-3.88-0.39-5.54-1.18c-1.66-0.78-3.07-1.93-4.24-3.45c-1.17-1.52-2.07-3.41-2.7-5.68
			c-0.63-2.27-0.95-4.87-0.95-7.82c0-2.62,0.35-5.05,1.05-7.31c0.7-2.26,1.71-4.21,3.02-5.87c1.31-1.66,2.91-2.96,4.82-3.91
			c1.91-0.95,4.05-1.42,6.43-1.42c2.17,0,4.04,0.37,5.59,1.1c1.55,0.74,2.94,1.76,4.15,3.07v-19.67H588.83z M582.59,670.56
			c-1.17-1.57-2.43-2.66-3.79-3.28c-1.36-0.62-2.87-0.93-4.56-0.93c-3.3,0-5.83,1.18-7.61,3.54c-1.78,2.36-2.66,5.73-2.66,10.1
			c0,2.31,0.2,4.29,0.6,5.94c0.4,1.65,0.98,3,1.75,4.07c0.77,1.07,1.72,1.84,2.84,2.33c1.12,0.49,2.39,0.74,3.82,0.74
			c2.06,0,3.85-0.47,5.38-1.4c1.53-0.94,2.94-2.26,4.22-3.96V670.56z"/>
		<path class="st0" d="M627.53,692.64c-0.77,0.94-1.7,1.75-2.77,2.44c-1.08,0.69-2.23,1.26-3.45,1.7c-1.23,0.44-2.5,0.78-3.8,1
			c-1.31,0.22-2.61,0.33-3.89,0.33c-2.45,0-4.72-0.42-6.78-1.24c-2.07-0.83-3.86-2.04-5.36-3.65c-1.51-1.6-2.68-3.58-3.52-5.94
			c-0.84-2.36-1.26-5.07-1.26-8.14c0-2.48,0.38-4.79,1.14-6.94c0.76-2.15,1.85-4.01,3.28-5.59c1.43-1.58,3.17-2.82,5.22-3.72
			c2.06-0.9,4.37-1.35,6.94-1.35c2.13,0,4.1,0.36,5.91,1.07c1.81,0.71,3.38,1.74,4.7,3.08c1.32,1.34,2.35,3,3.1,4.98
			s1.12,4.22,1.12,6.75c0,0.98-0.1,1.64-0.32,1.96c-0.21,0.33-0.61,0.49-1.19,0.49h-23.73c0.07,2.24,0.38,4.2,0.93,5.85
			c0.55,1.66,1.31,3.05,2.3,4.16c0.98,1.11,2.15,1.94,3.51,2.49c1.35,0.55,2.87,0.83,4.56,0.83c1.57,0,2.92-0.18,4.05-0.54
			c1.13-0.36,2.11-0.75,2.93-1.17c0.82-0.42,1.5-0.81,2.05-1.18c0.55-0.36,1.02-0.54,1.42-0.54c0.51,0,0.91,0.2,1.19,0.6
			L627.53,692.64z M622.48,675.99c0-1.45-0.21-2.78-0.61-3.98c-0.41-1.2-1-2.25-1.79-3.12c-0.78-0.88-1.73-1.55-2.86-2.03
			c-1.12-0.48-2.4-0.72-3.82-0.72c-2.99,0-5.36,0.87-7.1,2.61c-1.74,1.74-2.82,4.15-3.24,7.24H622.48z"/>
		<path class="st0" d="M637.77,697.62v-30.18l-3.93-0.46c-0.51-0.12-0.92-0.3-1.23-0.54c-0.3-0.25-0.46-0.6-0.46-1.07v-2.56h5.61
			v-1.96c0-2.17,0.34-4.17,1.02-5.98c0.68-1.81,1.69-3.37,3.05-4.68c1.36-1.31,3.04-2.33,5.07-3.05c2.02-0.73,4.36-1.09,7.03-1.09
			c0.89,0,1.8,0.06,2.73,0.17c0.93,0.12,1.74,0.29,2.42,0.53l-0.25,3.26c-0.02,0.23-0.11,0.4-0.26,0.49
			c-0.15,0.09-0.36,0.15-0.61,0.18c-0.26,0.02-0.58,0.03-0.96,0.02c-0.39-0.01-0.82-0.02-1.32-0.02c-4.16,0-7.17,0.86-9.04,2.57
			c-1.87,1.72-2.8,4.31-2.8,7.77v1.79h21.45v34.81h-6.27v-30.29h-15v30.29H637.77z"/>
		<path class="st0" d="M681.42,667.26c0.77-0.86,1.59-1.65,2.45-2.35c0.86-0.7,1.78-1.3,2.75-1.81c0.97-0.5,2-0.89,3.09-1.16
			c1.09-0.27,2.26-0.4,3.52-0.4c1.94,0,3.65,0.32,5.14,0.96c1.48,0.64,2.72,1.56,3.72,2.73c0.99,1.18,1.75,2.6,2.26,4.26
			c0.51,1.66,0.77,3.49,0.77,5.5v22.61h-6.28v-22.61c0-2.69-0.61-4.77-1.84-6.26c-1.23-1.48-3.09-2.22-5.59-2.22
			c-1.85,0-3.57,0.44-5.17,1.33c-1.6,0.89-3.08,2.09-4.44,3.61v26.15h-6.27v-35.51h3.75c0.89,0,1.44,0.43,1.65,1.3L681.42,667.26z"
			/>
		<path class="st0" d="M722.57,650.96c0,0.61-0.12,1.18-0.37,1.7c-0.25,0.53-0.57,0.99-0.98,1.4c-0.41,0.41-0.89,0.73-1.44,0.96
			c-0.55,0.24-1.13,0.35-1.74,0.35c-0.61,0-1.17-0.12-1.7-0.35c-0.53-0.23-0.99-0.55-1.39-0.96c-0.4-0.41-0.71-0.88-0.95-1.4
			c-0.23-0.53-0.35-1.09-0.35-1.7c0-0.61,0.12-1.18,0.35-1.74c0.23-0.55,0.55-1.03,0.95-1.44c0.4-0.41,0.86-0.73,1.39-0.96
			c0.53-0.24,1.09-0.35,1.7-0.35c0.61,0,1.19,0.12,1.74,0.35c0.55,0.23,1.03,0.56,1.44,0.96c0.41,0.41,0.74,0.89,0.98,1.44
			C722.45,649.78,722.57,650.35,722.57,650.96z M721.24,662.11v35.51H715v-35.51H721.24z"/>
		<path class="st0" d="M737.37,667.26c0.77-0.86,1.59-1.65,2.45-2.35c0.86-0.7,1.78-1.3,2.75-1.81c0.97-0.5,2-0.89,3.09-1.16
			c1.09-0.27,2.26-0.4,3.52-0.4c1.94,0,3.65,0.32,5.14,0.96c1.48,0.64,2.72,1.56,3.72,2.73c0.99,1.18,1.75,2.6,2.26,4.26
			c0.51,1.66,0.77,3.49,0.77,5.5v22.61h-6.28v-22.61c0-2.69-0.61-4.77-1.84-6.26c-1.23-1.48-3.09-2.22-5.59-2.22
			c-1.85,0-3.57,0.44-5.17,1.33c-1.6,0.89-3.08,2.09-4.44,3.61v26.15h-6.27v-35.51h3.75c0.89,0,1.44,0.43,1.65,1.3L737.37,667.26z"
			/>
		<path class="st0" d="M800.57,663.51v2.31c0,0.77-0.49,1.26-1.47,1.47l-4.03,0.53c0.79,1.54,1.19,3.25,1.19,5.12
			c0,1.73-0.33,3.3-1,4.71c-0.67,1.42-1.58,2.62-2.75,3.63c-1.17,1.01-2.57,1.78-4.21,2.31c-1.64,0.54-3.41,0.81-5.33,0.81
			c-1.66,0-3.22-0.2-4.7-0.6c-0.75,0.47-1.32,0.96-1.72,1.49c-0.4,0.53-0.6,1.06-0.6,1.6c0,0.84,0.34,1.48,1.04,1.91
			c0.69,0.43,1.59,0.74,2.72,0.93c1.12,0.19,2.4,0.3,3.84,0.35c1.44,0.05,2.91,0.12,4.42,0.23c1.51,0.11,2.98,0.29,4.42,0.54
			c1.44,0.26,2.72,0.68,3.84,1.26c1.12,0.59,2.03,1.39,2.72,2.42c0.69,1.03,1.03,2.36,1.03,3.99c0,1.52-0.38,2.99-1.14,4.42
			c-0.76,1.42-1.85,2.69-3.28,3.8c-1.43,1.11-3.17,2-5.24,2.66c-2.07,0.67-4.4,1-6.99,1c-2.59,0-4.86-0.26-6.8-0.77
			c-1.94-0.51-3.55-1.2-4.84-2.07c-1.29-0.86-2.25-1.87-2.89-3c-0.64-1.13-0.96-2.32-0.96-3.56c0-1.75,0.55-3.24,1.65-4.45
			c1.1-1.22,2.61-2.19,4.52-2.91c-1.05-0.47-1.89-1.09-2.51-1.87c-0.62-0.78-0.93-1.84-0.93-3.17c0-0.51,0.09-1.05,0.28-1.6
			c0.19-0.55,0.47-1.1,0.86-1.65c0.38-0.55,0.86-1.07,1.42-1.56c0.56-0.49,1.21-0.92,1.96-1.3c-1.75-0.98-3.12-2.28-4.1-3.91
			c-0.98-1.63-1.47-3.51-1.47-5.66c0-1.73,0.33-3.3,1-4.72c0.67-1.41,1.6-2.62,2.79-3.61c1.19-0.99,2.61-1.76,4.26-2.3
			c1.65-0.54,3.45-0.81,5.42-0.81c1.54,0,2.98,0.17,4.31,0.51c1.33,0.34,2.55,0.84,3.65,1.49H800.57z M794.23,699.55
			c0-0.86-0.25-1.57-0.74-2.1c-0.49-0.54-1.15-0.96-1.98-1.26c-0.83-0.3-1.79-0.52-2.89-0.65c-1.1-0.13-2.26-0.23-3.49-0.3
			c-1.23-0.07-2.47-0.14-3.73-0.21c-1.26-0.07-2.48-0.19-3.65-0.35c-1.31,0.61-2.38,1.37-3.21,2.3c-0.83,0.92-1.24,2-1.24,3.24
			c0,0.8,0.2,1.54,0.61,2.23c0.41,0.69,1.03,1.29,1.88,1.79c0.84,0.5,1.9,0.9,3.17,1.19c1.27,0.29,2.77,0.44,4.5,0.44
			c1.68,0,3.19-0.15,4.52-0.46c1.33-0.3,2.46-0.74,3.38-1.3c0.92-0.56,1.63-1.23,2.12-2C793.98,701.34,794.23,700.49,794.23,699.55z
			 M782.98,680.27c1.26,0,2.37-0.17,3.33-0.53c0.96-0.35,1.76-0.84,2.42-1.47c0.65-0.63,1.14-1.39,1.47-2.26
			c0.33-0.88,0.49-1.84,0.49-2.89c0-2.17-0.66-3.9-1.98-5.19c-1.32-1.29-3.23-1.93-5.73-1.93c-2.52,0-4.45,0.64-5.77,1.93
			c-1.32,1.29-1.98,3.01-1.98,5.19c0,1.05,0.17,2.01,0.51,2.89c0.34,0.88,0.83,1.63,1.49,2.26c0.65,0.63,1.46,1.12,2.42,1.47
			C780.6,680.09,781.71,680.27,782.98,680.27z"/>
		<path class="st0" d="M852.18,655.24c-0.21,0.35-0.44,0.61-0.68,0.79c-0.25,0.18-0.54,0.26-0.89,0.26c-0.4,0-0.86-0.2-1.4-0.6
			c-0.54-0.4-1.21-0.83-2.02-1.31c-0.81-0.48-1.78-0.92-2.91-1.31c-1.13-0.4-2.51-0.6-4.12-0.6c-1.52,0-2.86,0.21-4.01,0.61
			c-1.16,0.41-2.13,0.96-2.91,1.67c-0.78,0.7-1.37,1.52-1.77,2.47c-0.4,0.95-0.6,1.97-0.6,3.07c0,1.4,0.34,2.56,1.03,3.49
			c0.69,0.92,1.6,1.71,2.74,2.37c1.13,0.65,2.42,1.22,3.86,1.7s2.91,0.98,4.42,1.49c1.51,0.51,2.98,1.09,4.42,1.74
			c1.44,0.64,2.72,1.45,3.86,2.44c1.13,0.98,2.04,2.19,2.74,3.61c0.69,1.43,1.03,3.18,1.03,5.26c0,2.2-0.37,4.26-1.12,6.19
			c-0.75,1.93-1.84,3.61-3.28,5.03c-1.44,1.43-3.2,2.55-5.29,3.37c-2.09,0.82-4.47,1.23-7.13,1.23c-3.27,0-6.24-0.59-8.9-1.77
			c-2.66-1.18-4.94-2.77-6.84-4.79l1.96-3.22c0.19-0.26,0.41-0.47,0.68-0.65c0.27-0.18,0.57-0.26,0.89-0.26
			c0.3,0,0.65,0.12,1.04,0.37c0.38,0.24,0.82,0.56,1.31,0.93c0.49,0.37,1.05,0.78,1.68,1.23c0.63,0.45,1.35,0.85,2.16,1.23
			c0.81,0.37,1.72,0.68,2.75,0.93c1.03,0.25,2.18,0.37,3.47,0.37c1.61,0,3.05-0.22,4.31-0.67c1.26-0.44,2.33-1.07,3.21-1.88
			c0.88-0.81,1.55-1.77,2.02-2.89c0.47-1.12,0.7-2.37,0.7-3.75c0-1.52-0.34-2.76-1.03-3.73c-0.69-0.97-1.6-1.78-2.72-2.44
			c-1.12-0.65-2.41-1.21-3.86-1.67c-1.45-0.45-2.92-0.92-4.42-1.4c-1.49-0.48-2.97-1.04-4.42-1.66c-1.45-0.63-2.73-1.45-3.86-2.45
			c-1.12-1.01-2.03-2.26-2.72-3.77c-0.69-1.51-1.03-3.37-1.03-5.59c0-1.78,0.34-3.49,1.03-5.15c0.69-1.66,1.69-3.13,3.02-4.42
			c1.32-1.29,2.94-2.31,4.87-3.08c1.93-0.77,4.14-1.16,6.64-1.16c2.8,0,5.36,0.44,7.66,1.33c2.3,0.89,4.33,2.17,6.08,3.85
			L852.18,655.24z"/>
		<path class="st0" d="M891.55,662.11v35.51h-3.72c-0.89,0-1.45-0.43-1.68-1.3l-0.49-3.82c-1.54,1.71-3.27,3.08-5.19,4.12
			c-1.92,1.04-4.11,1.56-6.59,1.56c-1.94,0-3.65-0.32-5.14-0.96s-2.73-1.55-3.73-2.72c-1-1.17-1.76-2.58-2.26-4.24
			c-0.5-1.66-0.75-3.49-0.75-5.5v-22.65h6.24v22.65c0,2.69,0.61,4.77,1.84,6.24c1.23,1.47,3.1,2.21,5.62,2.21
			c1.84,0,3.57-0.44,5.17-1.32c1.6-0.88,3.08-2.08,4.44-3.63v-26.15H891.55z"/>
		<path class="st0" d="M907.36,669.23c1.12-2.43,2.5-4.33,4.14-5.7s3.63-2.05,6-2.05c0.75,0,1.47,0.08,2.16,0.24
			c0.69,0.16,1.3,0.42,1.84,0.77l-0.45,4.66c-0.14,0.59-0.49,0.88-1.05,0.88c-0.33,0-0.8-0.07-1.44-0.21
			c-0.63-0.14-1.34-0.21-2.14-0.21c-1.12,0-2.12,0.16-3,0.49c-0.88,0.33-1.66,0.81-2.35,1.45c-0.69,0.64-1.31,1.44-1.86,2.38
			c-0.55,0.95-1.05,2.03-1.49,3.24v22.44h-6.28v-35.51h3.58c0.68,0,1.14,0.13,1.4,0.39c0.26,0.26,0.43,0.7,0.53,1.33L907.36,669.23z
			"/>
		<path class="st0" d="M956.12,663.51v2.31c0,0.77-0.49,1.26-1.47,1.47l-4.03,0.53c0.8,1.54,1.19,3.25,1.19,5.12
			c0,1.73-0.33,3.3-1,4.71c-0.67,1.42-1.58,2.62-2.75,3.63c-1.17,1.01-2.57,1.78-4.21,2.31c-1.63,0.54-3.41,0.81-5.33,0.81
			c-1.66,0-3.22-0.2-4.7-0.6c-0.75,0.47-1.32,0.96-1.72,1.49c-0.4,0.53-0.6,1.06-0.6,1.6c0,0.84,0.35,1.48,1.04,1.91
			c0.69,0.43,1.59,0.74,2.72,0.93c1.12,0.19,2.4,0.3,3.84,0.35c1.44,0.05,2.91,0.12,4.42,0.23c1.51,0.11,2.98,0.29,4.42,0.54
			c1.44,0.26,2.72,0.68,3.84,1.26c1.12,0.59,2.03,1.39,2.72,2.42c0.69,1.03,1.04,2.36,1.04,3.99c0,1.52-0.38,2.99-1.14,4.42
			c-0.76,1.42-1.85,2.69-3.28,3.8c-1.42,1.11-3.17,2-5.24,2.66c-2.07,0.67-4.4,1-6.99,1c-2.6,0-4.86-0.26-6.8-0.77
			c-1.94-0.51-3.55-1.2-4.84-2.07c-1.29-0.86-2.25-1.87-2.89-3c-0.64-1.13-0.96-2.32-0.96-3.56c0-1.75,0.55-3.24,1.65-4.45
			c1.1-1.22,2.6-2.19,4.52-2.91c-1.05-0.47-1.89-1.09-2.51-1.87c-0.62-0.78-0.93-1.84-0.93-3.17c0-0.51,0.09-1.05,0.28-1.6
			c0.19-0.55,0.47-1.1,0.86-1.65c0.39-0.55,0.86-1.07,1.42-1.56c0.56-0.49,1.21-0.92,1.96-1.3c-1.75-0.98-3.12-2.28-4.1-3.91
			c-0.98-1.63-1.47-3.51-1.47-5.66c0-1.73,0.33-3.3,1-4.72c0.67-1.41,1.6-2.62,2.79-3.61c1.19-0.99,2.61-1.76,4.26-2.3
			c1.65-0.54,3.45-0.81,5.42-0.81c1.54,0,2.98,0.17,4.31,0.51c1.33,0.34,2.55,0.84,3.65,1.49H956.12z M949.78,699.55
			c0-0.86-0.24-1.57-0.74-2.1c-0.49-0.54-1.15-0.96-1.98-1.26c-0.83-0.3-1.79-0.52-2.89-0.65c-1.1-0.13-2.26-0.23-3.49-0.3
			c-1.23-0.07-2.47-0.14-3.73-0.21c-1.26-0.07-2.48-0.19-3.64-0.35c-1.31,0.61-2.38,1.37-3.21,2.3c-0.83,0.92-1.24,2-1.24,3.24
			c0,0.8,0.21,1.54,0.61,2.23c0.41,0.69,1.04,1.29,1.88,1.79c0.84,0.5,1.9,0.9,3.17,1.19c1.28,0.29,2.78,0.44,4.51,0.44
			c1.68,0,3.19-0.15,4.52-0.46c1.33-0.3,2.46-0.74,3.38-1.3c0.92-0.56,1.63-1.23,2.12-2C949.53,701.34,949.78,700.49,949.78,699.55z
			 M938.53,680.27c1.26,0,2.37-0.17,3.33-0.53c0.96-0.35,1.77-0.84,2.42-1.47c0.65-0.63,1.14-1.39,1.47-2.26
			c0.33-0.88,0.49-1.84,0.49-2.89c0-2.17-0.66-3.9-1.98-5.19c-1.32-1.29-3.23-1.93-5.73-1.93c-2.52,0-4.45,0.64-5.77,1.93
			c-1.32,1.29-1.98,3.01-1.98,5.19c0,1.05,0.17,2.01,0.51,2.89c0.34,0.88,0.84,1.63,1.49,2.26c0.65,0.63,1.46,1.12,2.42,1.47
			C936.15,680.09,937.26,680.27,938.53,680.27z"/>
		<path class="st0" d="M970.53,650.96c0,0.61-0.12,1.18-0.37,1.7c-0.25,0.53-0.57,0.99-0.98,1.4c-0.41,0.41-0.89,0.73-1.44,0.96
			c-0.55,0.24-1.13,0.35-1.74,0.35c-0.61,0-1.17-0.12-1.7-0.35c-0.53-0.23-0.99-0.55-1.39-0.96c-0.4-0.41-0.71-0.88-0.95-1.4
			c-0.24-0.53-0.35-1.09-0.35-1.7c0-0.61,0.12-1.18,0.35-1.74c0.23-0.55,0.55-1.03,0.95-1.44c0.4-0.41,0.86-0.73,1.39-0.96
			c0.53-0.24,1.09-0.35,1.7-0.35c0.61,0,1.19,0.12,1.74,0.35c0.55,0.23,1.03,0.56,1.44,0.96c0.41,0.41,0.74,0.89,0.98,1.44
			C970.41,649.78,970.53,650.35,970.53,650.96z M969.2,662.11v35.51h-6.24v-35.51H969.2z"/>
		<path class="st0" d="M1004.15,668.42c-0.19,0.26-0.37,0.45-0.56,0.59c-0.19,0.14-0.44,0.21-0.77,0.21c-0.35,0-0.74-0.15-1.16-0.44
			c-0.42-0.29-0.94-0.61-1.56-0.96c-0.62-0.35-1.38-0.67-2.28-0.96c-0.9-0.29-2.01-0.44-3.31-0.44c-1.75,0-3.3,0.31-4.63,0.93
			c-1.33,0.62-2.45,1.51-3.35,2.68c-0.9,1.17-1.58,2.58-2.03,4.24c-0.46,1.66-0.68,3.52-0.68,5.58c0,2.15,0.25,4.06,0.74,5.73
			c0.49,1.67,1.18,3.07,2.09,4.21c0.9,1.13,1.98,2,3.26,2.59c1.27,0.6,2.7,0.89,4.29,0.89c1.52,0,2.77-0.18,3.75-0.54
			c0.98-0.36,1.79-0.76,2.44-1.21c0.64-0.44,1.18-0.85,1.61-1.21c0.43-0.36,0.86-0.54,1.28-0.54c0.51,0,0.91,0.2,1.19,0.6l1.75,2.28
			c-0.77,0.96-1.65,1.78-2.63,2.46c-0.98,0.68-2.04,1.24-3.17,1.7c-1.13,0.45-2.32,0.79-3.56,1c-1.24,0.21-2.5,0.32-3.79,0.32
			c-2.22,0-4.28-0.41-6.19-1.23c-1.9-0.82-3.56-2.01-4.96-3.56c-1.4-1.55-2.5-3.46-3.29-5.73c-0.8-2.27-1.19-4.85-1.19-7.75
			c0-2.64,0.37-5.09,1.11-7.33c0.74-2.24,1.81-4.18,3.22-5.8c1.41-1.62,3.15-2.89,5.22-3.8c2.07-0.91,4.44-1.37,7.13-1.37
			c2.5,0,4.7,0.4,6.61,1.21c1.9,0.8,3.59,1.95,5.07,3.42L1004.15,668.42z"/>
		<path class="st0" d="M1012,667.12c1.96-1.89,4.08-3.31,6.35-4.24c2.27-0.93,4.78-1.4,7.54-1.4c1.99,0,3.75,0.33,5.29,0.98
			c1.54,0.65,2.84,1.57,3.89,2.74s1.85,2.58,2.38,4.24c0.54,1.66,0.81,3.48,0.81,5.47v22.72h-2.77c-0.61,0-1.07-0.1-1.4-0.3
			c-0.33-0.2-0.59-0.59-0.77-1.18l-0.7-3.37c-0.93,0.87-1.85,1.63-2.73,2.3c-0.89,0.67-1.82,1.23-2.81,1.68
			c-0.98,0.46-2.03,0.81-3.14,1.05c-1.11,0.24-2.34,0.37-3.7,0.37c-1.38,0-2.68-0.19-3.89-0.58c-1.22-0.39-2.27-0.96-3.17-1.73
			c-0.9-0.77-1.61-1.75-2.14-2.93c-0.53-1.18-0.79-2.58-0.79-4.19c0-1.4,0.38-2.75,1.16-4.05c0.77-1.3,2.02-2.45,3.75-3.45
			c1.73-1.01,3.98-1.83,6.77-2.47c2.78-0.64,6.19-1.01,10.24-1.1v-2.77c0-2.76-0.59-4.84-1.79-6.26c-1.19-1.42-2.93-2.12-5.22-2.12
			c-1.54,0-2.84,0.19-3.88,0.58c-1.04,0.39-1.94,0.82-2.7,1.3c-0.76,0.48-1.41,0.91-1.96,1.3c-0.55,0.38-1.09,0.58-1.63,0.58
			c-0.42,0-0.78-0.11-1.09-0.33c-0.3-0.22-0.56-0.5-0.77-0.82L1012,667.12z M1032.16,681.64c-2.87,0.09-5.32,0.32-7.34,0.68
			c-2.02,0.36-3.67,0.83-4.94,1.42c-1.27,0.58-2.2,1.27-2.77,2.07c-0.57,0.8-0.86,1.68-0.86,2.66c0,0.93,0.15,1.74,0.46,2.42
			c0.3,0.68,0.72,1.23,1.24,1.66c0.53,0.43,1.14,0.75,1.86,0.95c0.71,0.2,1.48,0.3,2.3,0.3c1.1,0,2.1-0.11,3.02-0.33
			c0.91-0.22,1.77-0.54,2.57-0.96c0.81-0.42,1.58-0.92,2.31-1.51c0.74-0.59,1.45-1.25,2.16-2V681.64z"/>
		<path class="st0" d="M1054.21,645.98v51.64h-6.24v-51.64H1054.21z"/>
		<path class="st1" d="M1120.85,697.62h-6.03c-1.24,0-2.15-0.48-2.74-1.44l-13.04-17.95c-0.4-0.56-0.82-0.96-1.28-1.21
			c-0.46-0.24-1.16-0.37-2.12-0.37h-5.15v20.96h-6.77v-50.24h14.2c3.18,0,5.92,0.32,8.24,0.96c2.31,0.64,4.23,1.57,5.73,2.79
			c1.51,1.22,2.62,2.68,3.35,4.4c0.72,1.72,1.09,3.64,1.09,5.77c0,1.77-0.28,3.43-0.84,4.98c-0.56,1.54-1.37,2.93-2.43,4.15
			c-1.07,1.23-2.36,2.27-3.89,3.14c-1.53,0.87-3.27,1.52-5.21,1.96c0.86,0.49,1.61,1.2,2.24,2.14L1120.85,697.62z M1097.65,671.71
			c1.96,0,3.7-0.24,5.2-0.72c1.51-0.48,2.77-1.16,3.79-2.04c1.02-0.88,1.78-1.92,2.3-3.14c0.51-1.21,0.77-2.56,0.77-4.03
			c0-2.99-0.98-5.25-2.94-6.77c-1.96-1.52-4.91-2.28-8.84-2.28h-7.43v18.96H1097.65z"/>
		<path class="st1" d="M1138.87,661.55c2.6,0,4.93,0.43,7.01,1.3c2.08,0.86,3.86,2.09,5.33,3.68c1.47,1.59,2.6,3.51,3.38,5.76
			c0.78,2.26,1.17,4.77,1.17,7.56c0,2.8-0.39,5.33-1.17,7.57c-0.78,2.25-1.91,4.16-3.38,5.75c-1.47,1.59-3.25,2.81-5.33,3.66
			c-2.08,0.85-4.42,1.28-7.01,1.28c-2.62,0-4.97-0.43-7.06-1.28c-2.09-0.85-3.88-2.07-5.35-3.66c-1.47-1.59-2.6-3.51-3.38-5.75
			c-0.78-2.24-1.18-4.77-1.18-7.57c0-2.78,0.39-5.3,1.18-7.56c0.78-2.25,1.91-4.18,3.38-5.76c1.47-1.59,3.25-2.82,5.35-3.68
			C1133.9,661.98,1136.26,661.55,1138.87,661.55z M1138.87,693.24c3.51,0,6.12-1.17,7.85-3.52c1.73-2.35,2.59-5.63,2.59-9.83
			c0-4.23-0.86-7.53-2.59-9.89c-1.73-2.36-4.35-3.54-7.85-3.54c-1.77,0-3.32,0.3-4.64,0.91c-1.32,0.61-2.42,1.48-3.29,2.63
			c-0.88,1.15-1.53,2.55-1.96,4.23c-0.43,1.67-0.65,3.56-0.65,5.66c0,4.21,0.87,7.48,2.61,9.83
			C1132.67,692.07,1135.32,693.24,1138.87,693.24z"/>
		<path class="st1" d="M1169.93,667.23c1.49-1.73,3.18-3.11,5.06-4.14c1.88-1.03,4.05-1.54,6.5-1.54c2.08,0,3.96,0.4,5.63,1.19
			c1.67,0.8,3.09,1.95,4.26,3.45c1.17,1.51,2.06,3.34,2.68,5.49c0.62,2.15,0.93,4.57,0.93,7.26c0,2.87-0.35,5.49-1.05,7.85
			c-0.7,2.36-1.71,4.38-3.03,6.05c-1.32,1.67-2.93,2.97-4.82,3.89c-1.89,0.92-4.02,1.39-6.38,1.39c-2.34,0-4.31-0.44-5.91-1.31
			c-1.6-0.88-3-2.12-4.19-3.73l-0.32,3.22c-0.19,0.89-0.73,1.33-1.61,1.33h-4.03v-51.64h6.28V667.23z M1169.93,689.07
			c1.14,1.54,2.4,2.63,3.77,3.26c1.37,0.63,2.87,0.95,4.51,0.95c3.34,0,5.9-1.18,7.68-3.54c1.78-2.36,2.66-5.88,2.66-10.55
			c0-4.35-0.79-7.54-2.37-9.59c-1.58-2.04-3.83-3.07-6.75-3.07c-2.03,0-3.8,0.47-5.31,1.4c-1.51,0.93-2.9,2.25-4.19,3.96V689.07z"/>
		<path class="st1" d="M1217.89,661.55c2.6,0,4.93,0.43,7.01,1.3c2.08,0.86,3.86,2.09,5.33,3.68c1.47,1.59,2.6,3.51,3.38,5.76
			c0.78,2.26,1.17,4.77,1.17,7.56c0,2.8-0.39,5.33-1.17,7.57c-0.78,2.25-1.91,4.16-3.38,5.75c-1.47,1.59-3.25,2.81-5.33,3.66
			c-2.08,0.85-4.42,1.28-7.01,1.28c-2.62,0-4.97-0.43-7.06-1.28c-2.09-0.85-3.88-2.07-5.35-3.66c-1.47-1.59-2.6-3.51-3.38-5.75
			c-0.78-2.24-1.18-4.77-1.18-7.57c0-2.78,0.39-5.3,1.18-7.56c0.78-2.25,1.91-4.18,3.38-5.76c1.47-1.59,3.25-2.82,5.35-3.68
			C1212.92,661.98,1215.27,661.55,1217.89,661.55z M1217.89,693.24c3.51,0,6.12-1.17,7.85-3.52c1.73-2.35,2.59-5.63,2.59-9.83
			c0-4.23-0.86-7.53-2.59-9.89c-1.73-2.36-4.35-3.54-7.85-3.54c-1.77,0-3.32,0.3-4.64,0.91c-1.32,0.61-2.42,1.48-3.29,2.63
			c-0.88,1.15-1.53,2.55-1.96,4.23c-0.43,1.67-0.65,3.56-0.65,5.66c0,4.21,0.87,7.48,2.61,9.83
			C1211.69,692.07,1214.34,693.24,1217.89,693.24z"/>
		<path class="st1" d="M1275,697.62h-6.24v-30.29h-18.3v21.32c0,1.5,0.36,2.6,1.09,3.33c0.72,0.72,1.66,1.09,2.8,1.09
			c0.65,0,1.22-0.09,1.7-0.26c0.48-0.18,0.89-0.37,1.24-0.58c0.35-0.21,0.65-0.4,0.89-0.58c0.24-0.18,0.46-0.26,0.65-0.26
			c0.33,0,0.62,0.2,0.88,0.6l1.82,2.98c-1.08,1.01-2.37,1.79-3.89,2.37c-1.52,0.57-3.08,0.86-4.7,0.86c-2.81,0-4.96-0.78-6.47-2.35
			c-1.51-1.57-2.26-3.82-2.26-6.77v-21.74h-4.28c-0.37,0-0.69-0.11-0.95-0.33c-0.26-0.22-0.39-0.57-0.39-1.03v-2.49l5.82-0.77
			l1.44-10.94c0.07-0.35,0.23-0.64,0.47-0.86c0.25-0.22,0.57-0.33,0.97-0.33h3.15v12.23H1275V697.62z M1276.54,650.72
			c0,0.61-0.12,1.17-0.37,1.7c-0.24,0.53-0.57,0.99-0.98,1.39c-0.41,0.4-0.88,0.71-1.42,0.95c-0.54,0.23-1.11,0.35-1.72,0.35
			c-0.61,0-1.17-0.12-1.7-0.35c-0.53-0.24-0.99-0.55-1.39-0.95c-0.4-0.4-0.71-0.86-0.95-1.39c-0.23-0.53-0.35-1.09-0.35-1.7
			c0-0.61,0.12-1.19,0.35-1.74c0.24-0.55,0.55-1.03,0.95-1.44c0.4-0.41,0.86-0.73,1.39-0.96c0.53-0.23,1.09-0.35,1.7-0.35
			c0.61,0,1.18,0.12,1.72,0.35c0.54,0.24,1.01,0.56,1.42,0.96c0.41,0.41,0.74,0.89,0.98,1.44
			C1276.42,649.53,1276.54,650.11,1276.54,650.72z"/>
		<path class="st1" d="M1309.95,668.42c-0.19,0.26-0.37,0.45-0.56,0.59c-0.19,0.14-0.44,0.21-0.77,0.21c-0.35,0-0.74-0.15-1.16-0.44
			c-0.42-0.29-0.94-0.61-1.56-0.96c-0.62-0.35-1.38-0.67-2.28-0.96c-0.9-0.29-2.01-0.44-3.31-0.44c-1.75,0-3.3,0.31-4.63,0.93
			c-1.33,0.62-2.45,1.51-3.35,2.68c-0.9,1.17-1.58,2.58-2.03,4.24c-0.46,1.66-0.68,3.52-0.68,5.58c0,2.15,0.25,4.06,0.74,5.73
			c0.49,1.67,1.18,3.07,2.09,4.21c0.9,1.13,1.98,2,3.26,2.59c1.27,0.6,2.7,0.89,4.29,0.89c1.52,0,2.77-0.18,3.75-0.54
			c0.98-0.36,1.79-0.76,2.44-1.21c0.64-0.44,1.18-0.85,1.61-1.21c0.43-0.36,0.86-0.54,1.28-0.54c0.51,0,0.91,0.2,1.19,0.6l1.75,2.28
			c-0.77,0.96-1.65,1.78-2.63,2.46c-0.98,0.68-2.04,1.24-3.17,1.7c-1.13,0.45-2.32,0.79-3.56,1c-1.24,0.21-2.5,0.32-3.79,0.32
			c-2.22,0-4.28-0.41-6.19-1.23c-1.9-0.82-3.56-2.01-4.96-3.56c-1.4-1.55-2.5-3.46-3.29-5.73c-0.8-2.27-1.19-4.85-1.19-7.75
			c0-2.64,0.37-5.09,1.11-7.33c0.74-2.24,1.81-4.18,3.23-5.8c1.41-1.62,3.15-2.89,5.22-3.8c2.07-0.91,4.44-1.37,7.13-1.37
			c2.5,0,4.7,0.4,6.61,1.21c1.9,0.8,3.59,1.95,5.07,3.42L1309.95,668.42z"/>
		<path class="st1" d="M1339.4,667.96c-0.28,0.51-0.71,0.77-1.3,0.77c-0.35,0-0.75-0.13-1.19-0.39c-0.44-0.26-0.99-0.54-1.63-0.86
			c-0.64-0.32-1.41-0.61-2.3-0.88c-0.89-0.27-1.94-0.4-3.16-0.4c-1.05,0-2,0.13-2.84,0.4c-0.84,0.27-1.56,0.64-2.16,1.1
			c-0.59,0.47-1.05,1.01-1.37,1.63c-0.32,0.62-0.47,1.29-0.47,2.01c0,0.91,0.26,1.67,0.79,2.28c0.53,0.61,1.22,1.13,2.09,1.58
			c0.86,0.44,1.85,0.84,2.94,1.18c1.1,0.34,2.23,0.7,3.38,1.09c1.16,0.39,2.28,0.81,3.38,1.28c1.1,0.47,2.08,1.05,2.95,1.75
			c0.86,0.7,1.56,1.56,2.09,2.58c0.53,1.02,0.79,2.24,0.79,3.67c0,1.63-0.29,3.15-0.88,4.54c-0.59,1.39-1.45,2.59-2.6,3.61
			c-1.15,1.02-2.55,1.82-4.21,2.4c-1.66,0.58-3.58,0.88-5.75,0.88c-2.48,0-4.72-0.4-6.73-1.21c-2.01-0.81-3.72-1.84-5.12-3.1
			l1.47-2.38c0.19-0.3,0.41-0.54,0.67-0.7c0.26-0.16,0.58-0.24,0.98-0.24c0.42,0,0.86,0.16,1.33,0.49c0.47,0.33,1.04,0.69,1.7,1.09
			c0.67,0.4,1.48,0.76,2.44,1.09c0.96,0.33,2.15,0.49,3.58,0.49c1.22,0,2.28-0.16,3.19-0.47c0.91-0.31,1.67-0.74,2.28-1.28
			c0.61-0.54,1.06-1.16,1.35-1.86c0.29-0.7,0.44-1.45,0.44-2.24c0-0.98-0.26-1.79-0.79-2.44c-0.53-0.64-1.22-1.19-2.09-1.65
			c-0.86-0.45-1.85-0.85-2.96-1.19c-1.11-0.34-2.24-0.69-3.4-1.07c-1.16-0.37-2.29-0.8-3.4-1.28c-1.11-0.48-2.1-1.08-2.96-1.81
			c-0.87-0.72-1.56-1.62-2.09-2.68c-0.53-1.07-0.79-2.36-0.79-3.88c0-1.36,0.28-2.66,0.84-3.91c0.56-1.25,1.38-2.35,2.45-3.29
			c1.07-0.95,2.4-1.7,3.96-2.26c1.57-0.56,3.35-0.84,5.36-0.84c2.34,0,4.44,0.37,6.29,1.1c1.86,0.74,3.46,1.75,4.82,3.03
			L1339.4,667.96z"/>
	</g>
	<g>
		<g>
			<g>
				<path class="st1" d="M580.08,465.52v29.66H526c-13.18,0-19.77,6.59-19.77,19.77v104.09H475.4V510.3
					c0-15.51,3.15-26.85,9.45-34.02c6.3-7.17,17.01-10.76,32.13-10.76H580.08z"/>
				<path class="st1" d="M621.65,465.52v-36.34h31.11v36.34h42.45v29.66h-42.45v72.69c0,8.72,1.6,14.73,4.8,18.03
					c3.2,3.3,8.48,4.94,15.85,4.94h21.23v28.2h-27.62c-7.95,0-14.78-0.87-20.5-2.62c-5.72-1.74-10.42-4.65-14.1-8.72
					c-3.68-4.07-6.4-9.49-8.14-16.28c-1.74-6.78-2.62-15.22-2.62-25.3v-70.94h-20.94v-29.66H621.65z"/>
				<path class="st1" d="M755.98,465.52v153.52h-30.82V465.52H755.98z"/>
				<path class="st1" d="M938.57,465.52v29.66H862.4c-13.37,0-23.11,3.68-29.22,11.05c-6.11,7.37-9.16,19.38-9.16,36.05
					c0,16.67,3.05,28.64,9.16,35.91c6.11,7.27,15.85,10.9,29.22,10.9h76.18v29.95h-79.09c-20.55,0-36.78-6.3-48.7-18.9
					c-11.92-12.6-17.88-31.88-17.88-57.86c0-25.97,5.96-45.26,17.88-57.86c11.92-12.6,28.15-18.9,48.7-18.9H938.57z"/>
				<path class="st1" d="M1005.45,465.52v91.88c0,9.11,3.24,16.67,9.74,22.68c6.49,6.01,15.85,9.01,28.06,9.01h25
					c12.21,0,21.52-3,27.91-9.01c6.4-6,9.6-13.56,9.6-22.68v-91.88H1136v93.04c0,8.92-1.41,17.06-4.22,24.42
					c-2.81,7.37-7.03,13.72-12.65,19.04c-5.63,5.34-12.55,9.5-20.79,12.5c-8.24,3.01-17.88,4.51-28.93,4.51h-28.49
					c-11.05,0-20.69-1.5-28.93-4.51c-8.24-3-15.17-7.17-20.79-12.5c-5.62-5.33-9.84-11.67-12.65-19.04
					c-2.81-7.36-4.22-15.51-4.22-24.42v-93.04H1005.45z"/>
				<path class="st1" d="M1210.14,398.94v220.1h-30.82v-220.1H1210.14z"/>
				<path class="st1" d="M1284.57,465.52v91.88c0,9.11,3.24,16.67,9.74,22.68c6.49,6.01,15.85,9.01,28.06,9.01h25
					c12.21,0,21.52-3,27.91-9.01c6.4-6,9.6-13.56,9.6-22.68v-91.88h30.24v93.04c0,8.92-1.41,17.06-4.21,24.42
					c-2.81,7.37-7.03,13.72-12.65,19.04c-5.62,5.34-12.55,9.5-20.79,12.5c-8.24,3.01-17.88,4.51-28.93,4.51h-28.49
					c-11.05,0-20.69-1.5-28.93-4.51c-8.24-3-15.17-7.17-20.79-12.5c-5.62-5.33-9.84-11.67-12.65-19.04
					c-2.81-7.36-4.22-15.51-4.22-24.42v-93.04H1284.57z"/>
				<path class="st1" d="M1586.38,465.52v29.66h-84.9c-7.17,0-12.31,1.45-15.41,4.36c-3.1,2.91-4.65,7.27-4.65,13.08
					c0,5.43,1.5,9.55,4.51,12.36c3,2.81,8.77,4.22,17.3,4.22h36.05c10.66,0,19.43,1.16,26.31,3.49c6.88,2.33,12.31,5.43,16.28,9.3
					c3.97,3.88,6.73,8.43,8.29,13.67c1.55,5.23,2.33,10.86,2.33,16.86c0,6.79-0.92,13.04-2.76,18.75
					c-1.84,5.72-4.8,10.61-8.87,14.68c-4.07,4.07-9.3,7.27-15.7,9.6c-6.4,2.33-14.06,3.49-22.97,3.49h-89.26v-29.95h89.26
					c7.17,0,12.31-1.31,15.41-3.93c3.1-2.62,4.65-6.93,4.65-12.94c0-6.2-1.7-10.61-5.09-13.23c-3.39-2.62-8.97-3.93-16.72-3.93
					h-36.34c-10.66,0-19.39-1.21-26.17-3.64c-6.79-2.42-12.17-5.72-16.14-9.89c-3.98-4.17-6.74-8.96-8.29-14.39
					c-1.55-5.42-2.33-11.05-2.33-16.86c0-13.76,3.88-24.66,11.63-32.71c7.75-8.04,20.54-12.07,38.38-12.07H1586.38z"/>
			</g>
		</g>
		<rect x="724.52" y="410.66" class="st0" width="31.41" height="36.11"/>
	</g>
	<g>
		<g>
			<path class="st1" d="M400.64,504.09c-3.35,3.15-6.67,6.4-9.92,9.75c-3.45,3.55-6.84,7.18-10.16,10.9l-30.5-62.69l-70.34,156.77
				h-29.69l84.73-188.86c2.57-5.75,8.33-9.55,14.66-9.65c6.26-0.07,12.15,3.52,14.93,9.21L400.64,504.09z"/>
			<path class="st1" d="M444.21,611.19c-2.91,4.6-7.85,7.45-13.3,7.62c-0.17,0.03-0.37,0.03-0.54,0.03h-80.8v-0.03h1.32
				c2.67-9.14,5.86-18.18,9.51-27.05h52.78l-25.02-51.46c3.99-5.99,8.26-11.88,12.73-17.6c1.79-2.3,3.62-4.57,5.48-6.84l38.69,79.52
				C447.52,600.46,447.22,606.39,444.21,611.19z"/>
		</g>
		<path class="st1" d="M350.88,618.85h-1.32v-0.03h1.29C350.84,618.81,350.84,618.81,350.88,618.85z"/>
		<path class="st0" d="M490.65,441.73c-31.85,20.48-60.66,45.43-84.29,74.14c-1.86,2.27-3.69,4.54-5.48,6.84
			c-4.47,5.72-8.73,11.61-12.73,17.6c-11.04,16.32-20.35,33.58-27.76,51.46c-3.66,8.87-6.84,17.91-9.51,27.05h-27.86
			c7.45-19.7,17.13-38.46,28.4-55.89c8.8-13.51,18.55-26.3,29.15-38.18c3.32-3.72,6.7-7.35,10.16-10.9c3.25-3.35,6.57-6.6,9.92-9.75
			C427.48,478.63,458.12,457.91,490.65,441.73z"/>
		<path class="st1" d="M430.9,618.81c-0.17,0.03-0.37,0.03-0.54,0.03h-80.8v-0.03H430.9z"/>
	</g>
</g>
</svg>
